PathFileType	4	(X/Y/Z)	..\data\2014022\dynamic\2014022_C4_04.trc
DataRate	CameraRate	NumFrames	NumMarkers	Units	OrigDataRate	OrigDataStartFrame	OrigNumFrames
100.000000	100.000000	4	52	mm	100.000000	108	173
Frame#	Time	L_IAS			L_IPS			R_IPS			R_IAS			L_FTC			L_FLE			L_FME			L_FAX			L_TTC			L_FAL			L_TAM			L_FCC			L_FM1			L_FM2			L_FM5			R_FTC			R_FLE			R_FME			R_FAX			R_TTC			R_FAL			R_TAM			R_FCC			R_FM1			R_FM2			R_FM5			CV7			TV10			SXS			SJN			L_SIA			L_SRS			L_SAA			L_SAE			L_HLE			L_HME			L_UOA			L_RSP			L_UHE			L_HM2			L_HM5			R_SIA			R_SRS			R_SAA			R_SAE			R_HLE			R_HME			R_UOA			R_RSP			R_UHE			R_HM2			R_HM5			
		X1	Y1	Z1	X2	Y2	Z2	X3	Y3	Z3	X4	Y4	Z4	X5	Y5	Z5	X6	Y6	Z6	X7	Y7	Z7	X8	Y8	Z8	X9	Y9	Z9	X10	Y10	Z10	X11	Y11	Z11	X12	Y12	Z12	X13	Y13	Z13	X14	Y14	Z14	X15	Y15	Z15	X16	Y16	Z16	X17	Y17	Z17	X18	Y18	Z18	X19	Y19	Z19	X20	Y20	Z20	X21	Y21	Z21	X22	Y22	Z22	X23	Y23	Z23	X24	Y24	Z24	X25	Y25	Z25	X26	Y26	Z26	X27	Y27	Z27	X28	Y28	Z28	X29	Y29	Z29	X30	Y30	Z30	X31	Y31	Z31	X32	Y32	Z32	X33	Y33	Z33	X34	Y34	Z34	X35	Y35	Z35	X36	Y36	Z36	X37	Y37	Z37	X38	Y38	Z38	X39	Y39	Z39	X40	Y40	Z40	X41	Y41	Z41	X42	Y42	Z42	X43	Y43	Z43	X44	Y44	Z44	X45	Y45	Z45	X46	Y46	Z46	X47	Y47	Z47	X48	Y48	Z48	X49	Y49	Z49	X50	Y50	Z50	X51	Y51	Z51	X52	Y52	Z52	

109	1.08	215.0796356201172	920.7875976562502	191.5703430175782	16.92253112792966	935.2193603515627	239.4185485839844	6.585877418518026	942.0078735351565	345.9181213378907	184.38818359375	916.5474243164065	438.2010803222657	142.2018890380859	855.5596923828127	116.6521911621094	300.4567260742188	457.9901733398439	159.4143218994141	280.5084228515625	435.4166259765626	294.6491699218751	292.9139099121094	403.4173889160157	156.5558166503907	366.1109313964844	413.0352172851564	210.2980346679689	433.5791015625001	75.3699188232422	196.2785949707032	448.5723571777344	98.95751953125003	278.5534667968751	423.0115051269532	16.7147216796875	250.1901092529298	588.8403320312501	90.32447814941408	280.1387329101564	584.4163818359376	104.2852554321289	221.5091247558595	559.8933105468751	66.13977050781251	179.9976043701173	80.00876617431636	859.3763427734377	480.6800842285157	-26.24407005310065	459.4366760253907	423.1967163085939	-14.9815301895142	465.8281555175782	287.1000671386719	-60.78624725341803	417.6814575195314	422.7874755859376	-1.760885715484665	384.525115966797	371.3760070800782	-186.3199005126954	95.82099914550783	363.2280883789063	-171.7527923583985	100.6935424804688	275.7124633789063	-236.1370544433595	58.7499351501465	317.4427490234375	-59.60254287719732	17.9488754272461	271.6163635253907	-48.13138580322271	33.59801483154298	333.2593078613282	-92.13808441162115	25.03186035156251	384.256317138672	81.99565887451169	1413.77587890625	290.4114685058594	-4.604793071746864	1197.43994140625	308.0631103515626	225.28955078125	1117.805541992188	294.6546936035157	193.3410339355469	1335.6298828125	289.0187377929688	-16.70663642883304	1222.889526367188	226.3827667236329	28.03773689270017	1365.0380859375	237.0350036621094	55.26910018920898	1367.14453125	165.5057220458985	97.39687347412111	1347.144409179688	112.0301055908204	-21.1050148010254	1053.77587890625	72.60709381103517	7.4777841567993	1032.373657226563	154.6042022705078	-28.24981307983401	1029.207275390625	110.5483703613282	15.71328830718994	805.0592041015627	39.57602691650391	-57.39176559448244	832.2482910156252	30.82851219177246	5.424522876739501	721.0803833007814	13.58735275268555	-88.86656188964845	755.4281616210939	39.87173461914062	-8.922772407531788	1234.844604492188	396.0289611816407	40.85543823242184	1372.955688476563	369.7125549316407	79.59677124023433	1376.100463867188	446.3952026367189	128.6117401123047	1375.299194335938	475.2983398437501	122.1450729370117	1056.43017578125	544.9466552734376	121.0913009643554	1040.075805664063	465.1317749023439	114.6399154663086	1026.177124023438	515.4216308593751	307.1214599609375	894.0749511718752	575.9077148437501	243.6337127685547	856.0678710937502	579.0828857421876	366.219482421875	829.3867187500002	594.6763916015626	283.9748840332031	782.6838989257815	559.9623413085939	
110	1.09	229.7199249267578	919.4304199218752	191.5422058105469	31.44298553466795	933.6213989257815	238.1151275634766	20.39271926879879	940.5025634765627	344.3166809082032	197.7929382324219	915.386657714844	438.4773864746095	156.2247772216797	853.660339355469	116.3013229370118	312.2138366699219	455.5335083007814	159.4855651855469	290.9931640625	433.0720825195314	294.7290039062501	305.3964843750001	401.0110168457032	156.8795318603516	378.2412719726563	411.5467834472657	211.2778167724611	450.350311279297	75.05699157714845	197.8668518066407	464.2966003417969	99.05055236816409	280.2629394531251	440.0609436035157	16.2104778289795	251.7379302978517	604.6775512695314	92.52786254882814	283.8830566406251	600.9454956054689	105.7451782226563	225.1106719970705	577.5753784179689	66.85323333740236	183.6834411621095	92.66540527343746	858.633728027344	479.5755920410157	-15.74473571777349	459.6325073242189	423.3536376953126	-3.8344502449036	465.709442138672	287.2602844238282	-50.94486618041999	418.3852844238282	422.9738159179689	7.547332763671831	383.9733886718751	371.5807495117188	-183.7356414794923	99.18717193603518	364.3011779785157	-169.5632019042969	104.0519104003907	276.8079528808594	-234.9084625244141	63.45950317382814	318.7294311523438	-59.48223114013677	17.48715972900391	271.6919555664063	-47.68436431884771	33.48157119750977	333.2082214355469	-91.26844787597662	25.11609840393067	384.5362548828126	94.8992233276367	1412.2998046875	289.9603881835938	8.992443084716761	1195.725830078125	307.7609252929688	239.2877044677735	1116.72314453125	294.1511230468751	206.5866851806641	1334.528564453125	288.5792846679688	-3.239459991455107	1221.058471679688	226.4583282470704	41.07578277587888	1363.316040039063	236.6990966796876	68.09822082519531	1365.523681640625	165.1665496826172	110.0954971313477	1345.745727539063	111.6010818481446	-10.4752426147461	1053.43017578125	72.49349975585939	19.08742713928221	1031.27392578125	154.0089263916016	-17.18826675415041	1028.781982421875	110.3102188110352	22.80097770690918	804.481628417969	37.78726959228516	-50.03104019165041	832.6274414062502	30.49188613891602	10.80428218841553	720.7904663085939	11.30351924896241	-82.39832305908205	756.2222290039064	39.65131378173828	4.628757953643751	1233.173217773438	395.834197998047	53.98848724365232	1371.455200195313	369.3080444335938	92.78245544433589	1374.740844726563	445.9461669921876	141.8204193115234	1374.057983398438	474.8181152343751	135.7791290283203	1055.137329101563	544.5419921875001	134.7842712402343	1038.753662109375	464.7638549804689	128.3554382324218	1024.870727539063	514.9802856445314	320.9480590820312	893.1013183593752	575.7045898437501	257.5689392089844	854.9011230468752	578.6071166992189	380.0940246582031	828.4685058593752	594.6144409179689	298.0933837890625	781.5919189453127	559.6678466796876	
111	1.1	244.5426330566407	918.2515258789065	191.4063262939454	46.19639587402342	932.2310180664065	236.9494171142579	34.57130813598629	939.1292114257815	342.8957824707032	211.6246795654297	914.351013183594	438.6863708496095	170.4990386962891	852.0681152343752	115.9164352416993	324.2200012207032	453.3963928222657	159.7933349609376	302.1119079589844	431.3309326171876	295.0818176269532	317.6742553710938	398.8597106933595	157.4306945800782	390.281219482422	409.9061889648439	212.403045654297	464.3621520996095	74.29923248291017	199.603240966797	477.6593322753907	98.45455169677737	282.1080322265626	453.9644165039063	15.45316314697266	253.3758239746095	617.9733276367189	92.78673553466798	287.3191833496095	614.9141845703126	105.3932723999024	228.4202117919923	592.2034912109376	66.15914154052736	187.1456298828126	105.7769317626953	857.9243774414065	478.532928466797	-4.43042325973516	459.7426757812501	423.5856018066407	8.099334716796841	465.4782104492189	287.5245971679688	-40.30744934082037	419.0029907226564	423.2268066406251	17.62353134155269	383.2971191406251	371.8704223632813	-180.7021636962891	102.8358993530274	365.5289611816407	-166.9818878173829	107.7040405273438	278.1049194335938	-233.3053131103516	68.66470336914064	320.1997985839844	-59.49579620361333	16.90613174438477	271.7807006835938	-47.21670913696294	33.30831909179688	333.1282043457032	-90.27552795410162	25.15675926208497	384.8216247558595	107.8836059570312	1410.989379882813	289.4064025878907	22.79072570800778	1194.124267578125	307.3259887695313	253.5183715820313	1115.88525390625	293.5897216796876	219.9700622558594	1333.639892578125	288.0337829589844	10.39679622650144	1219.374877929688	226.3841247558594	54.23237228393553	1361.748168945313	236.2201080322266	81.08780670166016	1364.067993164063	164.6795806884766	123.0104293823242	1344.529296875	111.0494232177735	0.7459239363670261	1053.134643554688	72.25609588623048	31.18824195861815	1030.305053710938	153.3328247070313	-5.583819866180434	1028.448852539063	109.9503555297852	30.42950820922852	804.0236816406252	36.04635620117189	-42.01626586914064	833.1231079101565	30.15748023986817	16.75164604187012	720.6347045898439	9.106992721557621	-75.30854797363283	757.1781616210939	39.41573333740234	18.3312549591064	1231.588745117188	395.461639404297	67.20428466796872	1370.079345703125	368.7632446289063	106.0219650268554	1373.50634765625	445.3747863769532	155.0690307617187	1372.955444335938	474.2381286621095	149.3206634521484	1054.020629882813	544.0527954101564	148.4173126220703	1037.59130859375	464.2778625488282	141.9742431640625	1023.748413085938	514.4289550781251	334.5076293945312	892.0259399414065	575.3912353515626	271.1669616699219	853.7572021484377	578.1268920898439	393.5835876464844	827.3531494140627	594.4711303710939	311.6912841796875	780.4224853515627	559.4617919921876	
112	1.11	259.5487060546876	917.289245605469	191.164535522461	61.17160415649413	931.0794067382815	235.9623718261719	49.13647842407224	937.9156494140627	341.7177429199219	225.9161224365234	913.442321777344	438.7903137207032	185.0391235351563	850.8396606445315	115.5047225952149	336.4194946289063	451.5732421875001	160.2885894775391	313.810302734375	430.1370849609376	295.6629943847657	329.7170104980469	396.9418029785157	158.149887084961	402.201873779297	408.1314392089845	213.6196899414064	475.8653869628907	73.08647918701173	201.4526672363282	488.8751831054688	97.17651367187503	284.0605773925782	464.9385986328126	14.45911979675293	255.0549316406251	628.9860839843751	91.05884552001955	290.4243774414064	626.5836181640626	103.2001190185547	231.4110412597658	604.0148315429689	64.0449676513672	190.3112640380861	119.384521484375	857.229187011719	477.5882873535157	7.807083606719921	459.7044982910157	423.9016113281251	20.92902374267575	465.0657958984376	287.9138793945313	-28.78107261657721	419.4839477539064	423.5598754882814	28.56167984008785	382.4420776367188	372.2708435058594	-177.1399078369141	106.7908096313477	366.9066772460938	-163.8933715820313	111.6443634033203	279.5985107421876	-231.1943359375001	74.42956542968751	321.8276062011719	-59.69838714599614	16.25600242614746	271.8747253417969	-46.7661743164063	33.08757019042969	333.0093383789063	-89.19305419921881	25.17313957214356	385.0912475585939	120.9504013061523	1409.862915039063	288.7398681640626	36.78525543212888	1192.65576171875	306.7557678222657	267.98095703125	1115.31494140625	292.971160888672	233.4833526611328	1332.980590820313	287.3777160644532	24.20831489562986	1217.85546875	226.1392364501954	67.50940704345702	1360.353515625	235.587387084961	94.24925231933594	1362.796997070313	164.035400390625	136.1497344970703	1343.507202148438	110.3674774169922	12.56070041656494	1052.890991210938	71.88913726806642	43.77804565429686	1029.482299804688	152.5745086669922	6.559855937957752	1028.213989257813	109.4670867919922	38.64407730102539	803.6795654296877	34.3568801879883	-33.31262588500978	833.726257324219	29.82349967956543	23.31658363342286	720.6038208007814	7.014531612396245	-67.56062316894533	758.2920532226564	39.16968536376953	32.17816925048824	1230.110595703125	394.9022521972657	80.50036621093747	1368.846557617188	368.0698547363282	119.3110122680664	1372.412719726563	444.675018310547	168.3549652099609	1372.006591796875	473.5531616210939	162.754653930664	1053.09716796875	543.4752197265626	161.9911041259765	1036.599853515625	463.6629333496095	155.4835815429687	1022.826904296875	513.7653198242189	347.7908325195312	890.8603515625002	574.9755249023439	284.4166870117188	852.648376464844	577.6375122070314	406.6757507324219	826.053161621094	594.2576904296876	324.7596740722656	779.1951293945315	559.3289794921876	
